<svg width="65" height="75" viewBox="0 0 65 75" fill="none" xmlns="http://www.w3.org/2000/svg">
<rect x="11" y="43" width="5" height="22" rx="2.5" fill="white"/>
<rect x="24" y="48" width="4" height="27" rx="2" fill="white"/>
<rect x="49" y="45" width="6" height="25" rx="3" fill="white"/>
<rect x="36" y="43" width="5" height="15" rx="2.5" fill="white"/>
<path d="M27.8571 25.4091C27.8571 26.4148 27.7452 27.395 27.5328 28.3385C26.1599 34.4365 20.5904 39 13.9286 39C6.23603 39 0 32.9151 0 25.4091C0 17.903 6.23603 11.8182 13.9286 11.8182C21.6211 11.8182 27.8571 17.903 27.8571 25.4091Z" fill="white"/>
<path d="M40.625 14.1818C40.625 19.3509 37.9089 23.874 33.8506 26.3525C31.984 27.4924 29.8335 28.1998 27.5328 28.3385C27.2561 28.3552 26.9772 28.3636 26.6964 28.3636C19.0039 28.3636 12.7679 22.0142 12.7679 14.1818C12.7679 6.34942 19.0039 0 26.6964 0C34.389 0 40.625 6.34942 40.625 14.1818Z" fill="white"/>
<path d="M53.3929 17.7273C53.3929 23.8116 48.8772 28.822 43.0722 29.4737C42.6498 29.5211 42.2205 29.5455 41.7857 29.5455C38.7168 29.5455 35.9261 28.3328 33.8506 26.3525C31.5906 24.1961 30.1786 21.1296 30.1786 17.7273C30.1786 11.2003 35.3753 5.90909 41.7857 5.90909C48.1962 5.90909 53.3929 11.2003 53.3929 17.7273Z" fill="white"/>
<path d="M65 27.7727C65 33.9734 60.0631 39 53.9732 39C48.4512 39 43.8772 34.8672 43.0722 29.4737C42.9894 28.919 42.9464 28.351 42.9464 27.7727C42.9464 21.5721 47.8833 16.5455 53.9732 16.5455C60.0631 16.5455 65 21.5721 65 27.7727Z" fill="white"/>
<path d="M27.5328 28.3385C26.1599 34.4365 20.5904 39 13.9286 39H53.9732C48.4512 39 43.8772 34.8672 43.0722 29.4737C42.6498 29.5211 42.2205 29.5455 41.7857 29.5455C38.7168 29.5455 35.9261 28.3328 33.8506 26.3525C31.984 27.4924 29.8335 28.1998 27.5328 28.3385Z" fill="white"/>
</svg>
